<svg width="433.00000000000006" height="100" xmlns="http://www.w3.org/2000/svg">
 <!-- Created with Method Draw - http://github.com/duopixel/Method-Draw/ -->

 <g>
  <title>background</title>
  <rect fill="none" id="canvas_background" height="102" width="435" y="-1" x="-1"/>
  <g display="none" overflow="visible" y="0" x="0" height="100%" width="100%" id="canvasGrid">
   <rect fill="url(#gridpattern)" stroke-width="0" y="0" x="0" height="100%" width="100%"/>
  </g>
 </g>
 <g>
  <title>Layer 1</title>
  <text font-weight="normal" stroke="#000" transform="matrix(2.449568035761753,0,0,2.6131298542022696,-214.3171495345387,-54.179748505353906) " xml:space="preserve" text-anchor="start" font-family="Junction, sans-serif" font-size="24" id="svg_7" y="44.502198" x="135.953533" stroke-width="0" fill="#000000">MovieTicket</text>
  <rect stroke="#000" id="svg_35" height="6.000001" width="407.249955" y="79.266657" x="21.000023" stroke-opacity="null" stroke-width="1.5" fill="#000000"/>
  <rect stroke="#ffffff" id="svg_36" height="5" width="407.416621" y="82.433325" x="17.833357" stroke-width="1.5" fill="#ffffff"/>
  <text font-weight="normal" stroke="#000" transform="matrix(2.449566644034542,0,0,2.5642358135800953,-214.7007690703869,-49.261266232623306) " xml:space="preserve" text-anchor="start" font-family="Junction, sans-serif" font-size="24" id="svg_8" y="44.050033" x="136.926685" stroke-width="0" fill="#ffffff">MovieTicket</text>
  <rect stroke="#000" id="svg_25" height="6.000001" width="407.249955" y="85.266668" x="15.000012" stroke-opacity="null" stroke-width="1.5" fill="#000000"/>
  <path stroke="#000" id="svg_2" d="m134.947935,43.820923c-2.506695,2.836245 -13.301743,6.433629 -14.69406,6.433629l-11.833386,0c-1.963928,0 -4.921619,0.392588 -6.313936,1.292601c0.159946,0.144216 0.319892,0.288432 0.474594,0.435318c1.069803,1.012182 3.571254,2.438316 5.784278,2.438316c1.04096,0 1.895754,-0.307126 2.622066,-0.945415c3.088794,-2.689358 4.693499,-3.004497 5.624332,-3.004497c1.10389,0 2.053078,0.515438 2.611578,1.418122c1.048827,1.671835 0.277939,3.859109 -0.508681,5.573675c-1.882644,4.070091 -8.018279,8.468674 -14.670461,8.468674c-0.005244,0 -0.005244,0 -0.010488,0c-0.928211,0 -1.838069,-0.088132 -2.708595,-0.264396l0,8.682327c0,1.981632 2.708595,6.764791 10.926151,6.764791s10.370273,-9.884126 10.370273,-11.585339l0,-12.050034c5.847208,-3.122006 11.830764,-4.820548 14.69406,-10.402235c2.692862,-5.245183 0.136347,-6.091784 -2.367726,-3.255539zm-18.380685,12.621556c2.087165,-4.537457 -0.13897,-4.537457 -4.037982,-1.135032s-9.609873,0.28042 -11.558069,-1.562338c-1.948195,-1.840087 -3.896391,-3.25821 -7.378495,-3.116664c-3.482104,0.141545 -11.694416,-0.429977 -16.43249,-1.562338c-4.73283,-1.135032 -12.835015,-8.011991 -13.503642,-6.236c-0.69747,1.842758 0.553256,3.119335 3.062574,6.236c2.504073,3.122006 13.306987,7.419104 13.306987,7.419104s0,9.221801 0,13.048862c0,3.832402 7.795403,9.641096 11.830764,9.641096s7.100556,-2.836245 7.100556,-4.823218l0,-12.050034c6.683647,3.551983 15.522633,-1.319308 17.609798,-5.859436zm-4.195306,-10.124486c4.572884,0 8.283108,-3.776318 8.283108,-8.433956c0,-4.660308 -3.710224,-8.436626 -8.283108,-8.436626s-8.280486,3.776318 -8.280486,8.436626c0,4.657637 3.707602,8.433956 8.280486,8.433956zm-21.823458,0c4.572884,0 8.280486,-3.776318 8.280486,-8.433956c0,-4.660308 -3.707602,-8.436626 -8.280486,-8.436626c-4.575506,0 -8.283108,3.776318 -8.283108,8.436626c0,4.657637 3.70498,8.433956 8.283108,8.433956z" stroke-width="1.5" fill="#e5e5e5"/>
  <text font-weight="normal" stroke="#000" transform="matrix(2.449568035761753,0,0,2.6131298542022696,-214.3171495345387,-54.179748505353906) " xml:space="preserve" text-anchor="start" font-family="Junction, sans-serif" font-size="24" id="svg_12" y="45.905368" x="137.178239" stroke-width="0" fill="#000000">MovieTicket</text>
  <rect stroke="#ffffff" id="svg_24" height="5" width="407.416621" y="87.933335" x="11.333345" stroke-width="1.5" fill="#ffffff"/>
  <rect stroke="#000" rx="6" id="svg_13" height="28.666671" width="28.666664" y="64.933333" x="70" stroke-opacity="null" stroke-width="1.5" fill="#000000"/>
  <rect stroke="#000" rx="6" id="svg_15" height="28.666671" width="28.666664" y="64.933333" x="101.666666" stroke-opacity="null" stroke-width="1.5" fill="#000000"/>
  <ellipse ry="8.166667" rx="8.5" id="svg_31" cy="63.099999" cx="52.500011" fill-opacity="null" stroke-opacity="null" stroke-width="1.5" stroke="#000" fill="#e5e5e5"/>
  <rect stroke="#000" rx="6" id="svg_16" height="28.666671" width="28.666664" y="64.933333" x="38.333334" stroke-opacity="null" stroke-width="1.5" fill="#000000"/>
  <ellipse ry="8.166667" rx="8.5" id="svg_29" cy="65.433332" cx="22.166677" fill-opacity="null" stroke-opacity="null" stroke-width="1.5" stroke="#000" fill="#e5e5e5"/>
  <rect stroke="#000" rx="6" id="svg_17" height="28.666671" width="28.666664" y="64.933333" x="6.333334" stroke-opacity="null" stroke-width="1.5" fill="#000000"/>
  <rect stroke="#000" rx="6" id="svg_18" height="28.666671" width="28.666664" y="64.933333" x="133.333329" stroke-opacity="null" stroke-width="1.5" fill="#000000"/>
  <rect stroke="#000" rx="6" id="svg_19" height="28.666671" width="28.666664" y="65.266666" x="165.333326" stroke-opacity="null" stroke-width="1.5" fill="#000000"/>
  <rect stroke="#000" id="svg_21" height="4.000001" width="410.333278" y="90.266667" x="6.333346" stroke-opacity="null" stroke-width="1.5" fill="#000000"/>
  <rect stroke="#000" id="svg_32" height="3.500001" width="115.791648" y="17.995834" x="7.249962" stroke-opacity="null" stroke-width="1.5" fill="#000000"/>
  <rect stroke="#ffffff" id="svg_33" height="2.166668" width="115.68746" y="20.370835" x="8.979152" stroke-width="1.5" fill="#ffffff"/>
  <rect stroke="#000" id="svg_34" height="2.833335" width="115.64581" y="21.641656" x="10.854155" stroke-opacity="null" stroke-width="1.5" fill="#000000"/>
 </g>
</svg>